<svg width="455" height="455" viewBox="0 0 455 455" fill="none" xmlns="http://www.w3.org/2000/svg">
<circle cx="227.5" cy="227.5" r="227.5" fill="white"/>
<path d="M93.868 325.549C87.6533 325.549 81.3359 322.977 77.3701 317.936V345.169H64.9408V277.945H76.1852L76.6265 285.316C80.4835 279.634 87.339 276.632 93.874 276.638C106.4 276.638 115.637 287.144 115.637 301.088C115.637 315.031 106.394 325.555 93.868 325.549ZM90.0171 285.879C82.7626 285.879 76.8381 291.562 76.8381 301.106C76.8381 310.649 82.7263 316.332 90.011 316.332C97.2957 316.332 103.172 310.649 103.172 301.106C103.172 291.562 97.2957 285.879 90.0171 285.879Z" fill="#130754"/>
<path d="M162.483 324.272L162.054 316.877C158.197 322.56 151.341 325.561 144.812 325.561C132.28 325.561 123.049 315.049 123.049 301.112C123.049 287.174 132.262 276.662 144.812 276.668C151.341 276.668 158.197 279.694 162.054 285.353L162.483 277.957H173.728V324.278L162.483 324.272ZM148.669 285.885C141.415 285.885 135.497 291.568 135.497 301.112C135.497 310.656 141.385 316.338 148.669 316.338C155.954 316.338 161.842 310.656 161.842 301.118C161.842 291.58 155.954 285.922 148.669 285.885Z" fill="#130754"/>
<path d="M217.2 324.284V298.63C217.2 289.625 214.093 286.624 208.416 286.624C202.528 286.624 196.101 291.979 196.095 298.413V324.254H183.678V277.957H195.062L195.594 286.539C198.701 280.638 205.665 276.674 212.732 276.674C225.047 276.674 229.659 285.256 229.659 296.73V324.284H217.2Z" fill="#130754"/>
<path d="M275.175 324.29L274.746 316.889C270.895 322.572 264.04 325.573 257.504 325.573C244.972 325.573 235.741 315.061 235.741 301.124C235.741 287.186 244.954 276.68 257.504 276.68C263.713 276.68 270.037 279.258 273.996 284.3V259.959H286.42V324.29H275.175ZM261.367 285.922C254.083 285.922 248.189 291.604 248.189 301.148C248.189 310.692 254.077 316.368 261.361 316.375C268.646 316.381 274.534 310.692 274.534 301.148C274.534 291.604 268.646 285.922 261.367 285.922Z" fill="#130754"/>
<path d="M333.108 324.296L332.679 316.901C328.822 322.584 321.966 325.585 315.437 325.579C302.905 325.579 293.674 315.073 293.674 301.136C293.674 287.199 302.887 276.686 315.437 276.693C321.966 276.693 328.822 279.718 332.679 285.377L333.108 277.982H344.383V324.296H333.108ZM319.294 285.922C312.01 285.922 306.122 291.604 306.122 301.148C306.122 310.692 312.01 316.375 319.294 316.375C326.579 316.375 332.467 310.692 332.467 301.148C332.467 291.604 326.579 285.922 319.294 285.922Z" fill="#130754"/>
<path d="M371.883 325.803C365.347 325.751 358.947 323.936 353.354 320.55L355.385 311.945C359.134 314.196 364.81 317.095 371.666 317.095C376.593 317.095 380.02 315.594 380.02 311.733C380.02 308.41 376.49 307.23 370.166 305.729C358.819 303.26 354.745 297.257 354.751 290.715C354.751 283.452 360.427 276.565 372.959 276.565C380.564 276.565 387.202 279.894 388.677 280.747L386.664 288.948C382.618 286.507 378.002 285.175 373.28 285.086C368.244 285.086 365.777 286.799 365.777 289.589C365.777 292.694 368.994 294.092 373.921 295.272C386.126 297.844 391.053 303.526 391.053 309.748C391.053 319.697 383.768 325.803 371.883 325.803Z" fill="#130754"/>
<path d="M224.067 117.71H209.504V147.982H224.067V117.71Z" fill="#130754"/>
<path d="M224.067 179.893H209.504V210.164H224.067V179.893Z" fill="#130754"/>
<path d="M224.067 156.823H209.504V171.106H224.067V156.823Z" fill="#FFCA00"/>
<path d="M200.672 142.602H186.109V243.226H200.672V142.602Z" fill="#130754"/>
<path d="M246.979 204.869H232.416V235.141H246.979V204.869Z" fill="#130754"/>
<path d="M246.979 142.638H232.416V172.909H246.979V142.638Z" fill="#130754"/>
<path d="M246.979 181.745H232.416V196.027H246.979V181.745Z" fill="#E70488"/>
<path d="M269.885 109.831H255.322V210.455H269.885V109.831Z" fill="#130754"/>
</svg>
