<svg width="26" height="25" viewBox="0 0 26 25" fill="none" xmlns="http://www.w3.org/2000/svg">
<path d="M12.8157 0.00080097C5.73582 0.00080097 0 5.74143 0 12.8165C0 18.4818 3.6717 23.2837 8.76033 24.9778C9.40351 25.0987 9.6358 24.7022 9.6358 24.3594C9.6358 24.0551 9.62859 23.2501 9.62378 22.1816C6.05702 22.9537 5.3057 20.4587 5.3057 20.4587C4.72178 18.9816 3.87915 18.5852 3.87915 18.5852C2.71933 17.793 3.97126 17.8098 3.97126 17.8098C5.25604 17.8971 5.93206 19.1274 5.93206 19.1274C7.07506 21.0882 8.93093 20.5211 9.66543 20.1911C9.77757 19.3653 10.1116 18.7974 10.4752 18.481C7.63014 18.1598 4.63848 17.0585 4.63848 12.1477C4.63848 10.7452 5.13509 9.60296 5.95609 8.70586C5.81432 8.38467 5.38019 7.07907 6.06903 5.31371C6.06903 5.31371 7.14154 4.97169 9.59335 6.62812C10.6194 6.34377 11.7087 6.20199 12.7973 6.19478C13.8866 6.20199 14.9751 6.34457 16.0012 6.62812C18.4386 4.97169 19.5103 5.31371 19.5103 5.31371C20.1983 7.07907 19.7642 8.38387 19.6392 8.70586C20.4522 9.60296 20.9488 10.746 20.9488 12.1477C20.9488 17.0697 17.9532 18.155 15.1049 18.4682C15.5502 18.8519 15.9675 19.6408 15.9675 20.8383C15.9675 22.5524 15.9515 23.9333 15.9515 24.3506C15.9515 24.6838 16.1758 25.0843 16.8358 24.9554C21.9621 23.2789 25.6298 18.473 25.6298 12.8157C25.6298 5.74063 19.894 0 12.8141 0L12.8157 0.00080097Z" fill="white"/>
</svg>
